<?xml version="1.0" standalone="no"?>
<!DOCTYPE svg PUBLIC "-//W3C//DTD SVG 20010904//EN"
 "http://www.w3.org/TR/2001/REC-SVG-20010904/DTD/svg10.dtd">
<svg version="1.0" xmlns="http://www.w3.org/2000/svg"
 width="800.000000pt" height="698.000000pt" viewBox="0 0 800.000000 698.000000"
 preserveAspectRatio="xMidYMid meet">

<g transform="translate(0.000000,698.000000) scale(0.100000,-0.100000)"
fill="#000000" stroke="none">
<path d="M917 6954 c-171 -41 -311 -169 -373 -340 -13 -36 -24 -80 -24 -98 0
-19 -3 -47 -6 -63 -6 -28 -9 -30 -77 -41 -255 -39 -451 -284 -434 -542 10
-155 75 -285 191 -378 107 -87 204 -122 333 -122 96 0 164 19 260 71 40 21 76
39 80 39 9 -1 58 -45 204 -184 150 -143 392 -370 537 -505 131 -122 157 -152
149 -174 -2 -8 -129 -11 -473 -12 -464 0 -469 0 -510 -22 -56 -30 -90 -72
-111 -139 -14 -47 -15 -63 -5 -111 14 -67 47 -121 98 -160 l37 -28 485 -5 486
-5 22 -130 c22 -127 56 -270 73 -310 5 -11 22 -54 37 -95 39 -107 131 -293
200 -402 26 -42 153 -218 164 -228 3 -3 37 -43 77 -90 73 -87 178 -192 291
-289 34 -30 61 -57 60 -61 -3 -6 -39 -40 -287 -269 -63 -59 -151 -140 -195
-182 -45 -42 -112 -105 -151 -141 -38 -35 -166 -153 -283 -262 l-212 -198 -38
29 c-94 73 -184 103 -306 103 -186 0 -347 -88 -448 -244 -109 -169 -109 -395
1 -562 84 -129 229 -224 365 -240 50 -6 54 -9 60 -37 3 -16 6 -45 6 -63 0 -79
84 -241 161 -311 103 -94 196 -133 336 -140 84 -5 112 -2 170 15 203 62 353
234 376 432 4 30 2 95 -3 143 -7 70 -16 103 -44 159 -20 38 -36 75 -36 82 0 6
42 49 93 93 50 45 139 128 196 183 57 55 109 99 115 97 6 -2 14 -35 19 -73 7
-68 45 -206 74 -274 46 -104 61 -133 117 -225 132 -217 388 -418 626 -491 30
-9 74 -22 96 -30 127 -40 214 -49 494 -49 247 1 286 3 385 23 297 62 505 165
684 341 124 121 205 242 271 400 44 108 80 245 80 306 0 49 2 56 18 53 16 -3
193 -163 348 -315 l43 -42 -35 -71 c-36 -73 -64 -177 -64 -243 0 -60 30 -177
63 -242 60 -121 218 -242 357 -274 111 -26 245 -6 352 51 68 36 157 111 183
153 64 103 87 163 98 246 l11 86 68 11 c247 38 438 262 438 514 0 243 -162
452 -397 513 -144 38 -319 6 -425 -77 -21 -16 -44 -28 -52 -26 -14 3 -494 449
-856 794 -52 50 -130 122 -172 160 -43 38 -78 74 -78 81 0 6 28 33 63 59 270
206 528 523 686 844 101 205 192 495 209 667 l7 68 495 5 c472 5 497 6 529 25
52 31 90 84 103 145 23 111 -17 207 -104 248 -41 20 -60 21 -528 23 -336 2
-487 6 -492 13 -21 31 -5 56 90 142 53 49 133 123 177 164 44 41 139 129 210
195 72 66 161 150 200 187 117 111 170 158 177 158 4 0 31 -14 60 -31 223
-131 482 -101 655 78 286 294 149 773 -252 878 -33 8 -70 15 -82 15 -20 0 -23
5 -23 41 0 23 -7 69 -16 103 -46 176 -161 306 -330 373 -61 24 -83 27 -184 27
-97 0 -124 -4 -175 -23 -240 -95 -376 -321 -344 -576 8 -64 19 -96 54 -162
l44 -81 -111 -104 c-61 -56 -116 -108 -122 -113 -35 -33 -297 -277 -325 -303
-19 -17 -38 -29 -42 -26 -4 2 -32 39 -62 82 -79 111 -99 134 -232 267 -130
130 -158 156 -250 225 -417 313 -878 466 -1395 464 -538 -2 -1000 -156 -1414
-472 -143 -109 -345 -327 -461 -495 l-54 -79 -73 68 c-79 74 -167 156 -293
275 -112 105 -185 172 -218 201 l-29 24 36 59 c56 96 70 147 70 260 0 160 -41
262 -149 370 -140 141 -315 194 -498 149z m205 -115 c213 -45 356 -250 320
-460 -14 -83 -45 -147 -101 -211 -23 -25 -41 -50 -41 -56 0 -5 19 -27 43 -47
23 -21 76 -70 117 -109 41 -38 111 -104 155 -146 264 -248 368 -345 376 -348
17 -7 9 -33 -46 -142 -59 -118 -137 -337 -157 -444 -7 -36 -16 -66 -20 -66 -3
0 -89 78 -190 173 -101 94 -285 267 -408 382 -123 116 -243 227 -267 249 l-44
39 -47 -47 c-26 -26 -76 -61 -112 -79 -60 -30 -72 -32 -170 -32 -97 0 -110 2
-173 32 -166 79 -261 260 -228 438 24 132 108 241 228 298 64 30 75 32 181 32
68 0 112 4 112 10 0 6 -5 41 -10 78 -11 78 4 177 38 244 31 59 104 135 160
166 95 51 186 66 284 46z m5988 -39 c106 -42 201 -139 236 -242 20 -57 25
-175 11 -245 l-9 -42 85 6 c143 10 263 -40 351 -146 88 -106 115 -224 81 -356
-33 -124 -104 -211 -221 -270 -55 -28 -67 -30 -169 -30 -102 0 -115 2 -175 31
-36 17 -87 52 -114 78 l-48 47 -27 -23 c-14 -13 -28 -25 -31 -28 -3 -3 -37
-34 -75 -69 -39 -36 -101 -95 -140 -131 -193 -181 -598 -555 -603 -555 -3 0
-12 32 -22 70 -32 135 -75 251 -151 403 l-76 152 41 37 c23 20 75 68 116 107
67 64 390 363 497 460 l42 39 -43 49 c-88 100 -124 219 -104 343 24 157 139
285 298 331 63 19 182 11 250 -16z m-2785 -346 c599 -78 1133 -421 1476 -949
45 -69 119 -205 119 -218 0 -4 -859 -7 -1910 -7 -1050 0 -1910 3 -1910 6 0 16
91 178 146 261 364 543 915 868 1569 923 125 11 366 3 510 -16z m2905 -1964
c29 -16 60 -74 60 -114 0 -44 -21 -89 -52 -110 -20 -14 -337 -16 -3201 -16
l-3179 0 -29 31 c-15 17 -31 45 -34 63 -7 37 14 98 47 133 l21 23 3174 0
c2070 0 3181 -3 3193 -10z m-1090 -376 c0 -27 -31 -156 -62 -259 -165 -546
-491 -986 -923 -1248 -276 -167 -566 -255 -945 -288 -157 -14 -424 -6 -579 16
-599 86 -1046 366 -1385 870 -76 113 -198 368 -250 524 -46 140 -96 334 -96
379 l0 22 2120 0 c1910 0 2120 -2 2120 -16z m-3149 -1728 c52 -24 148 -62 214
-85 107 -36 120 -43 119 -63 -2 -44 -58 -353 -65 -362 -26 -30 -489 204 -489
247 0 32 50 169 87 240 20 37 37 67 38 67 1 0 44 -20 96 -44z m2141 -69 c44
-107 88 -235 88 -254 0 -15 -88 -61 -242 -126 -104 -45 -276 -103 -282 -96 -2
4 -56 316 -64 376 -4 30 -2 32 39 43 80 21 274 88 339 119 36 16 70 30 75 30
6 1 27 -41 47 -92z m823 -577 c226 -211 422 -395 438 -409 l27 -25 48 46 c98
96 195 133 322 126 252 -15 430 -259 366 -505 -35 -137 -128 -237 -267 -283
-53 -18 -81 -21 -157 -18 l-94 4 6 -30 c33 -163 4 -282 -96 -391 -56 -62 -120
-102 -192 -121 -186 -50 -393 47 -473 222 -68 150 -44 313 67 446 l40 46 -48
42 c-26 23 -81 74 -122 113 -169 159 -248 234 -311 293 l-66 63 -6 137 c-8
158 -38 375 -72 519 -25 106 -87 301 -111 347 -8 15 -14 32 -14 39 0 6 69 -54
153 -133 83 -79 337 -317 562 -528z m-3248 603 c-23 -44 -75 -214 -97 -317
-32 -148 -50 -296 -57 -483 l-6 -173 -96 -87 c-83 -77 -392 -363 -445 -413
-18 -18 -18 -19 22 -67 107 -129 131 -289 64 -434 -52 -113 -126 -180 -243
-219 -85 -29 -208 -24 -289 12 -80 36 -163 116 -202 196 -32 65 -33 70 -32
197 l0 130 -110 0 c-100 0 -117 3 -169 27 -80 38 -160 117 -200 197 -30 62
-32 72 -32 176 0 98 3 116 27 167 121 259 459 318 662 115 l53 -53 39 35 c22
19 94 86 162 150 68 63 131 122 141 130 33 30 675 626 746 693 70 67 88 73 62
21z m866 -133 c99 -17 301 -40 365 -40 l22 0 0 -217 0 -216 -109 7 c-131 8
-377 50 -467 81 -8 2 -9 18 -3 52 4 26 17 111 29 188 25 161 26 165 40 165 6
0 61 -9 123 -20z m955 -47 c23 -133 54 -354 50 -358 -12 -12 -292 -55 -397
-61 l-121 -7 0 216 0 215 88 7 c48 3 143 14 212 24 69 10 132 19 141 20 13 1
19 -13 27 -56z m-1674 -237 c96 -55 229 -118 321 -151 28 -10 54 -22 58 -26 7
-5 -38 -368 -47 -376 -9 -10 -285 136 -409 216 l-95 62 5 42 c2 23 13 95 24
161 10 65 19 123 19 128 0 14 16 7 124 -56z m2424 -98 c12 -62 24 -136 27
-164 l7 -51 -89 -56 c-150 -94 -438 -228 -453 -210 -3 4 -17 85 -29 178 -12
94 -25 178 -27 188 -3 9 1 19 8 21 159 47 373 128 464 174 32 17 62 31 65 32
4 0 16 -51 27 -112z m-1821 -139 c112 -26 258 -46 396 -55 l107 -7 0 -208 0
-209 -65 0 c-129 0 -403 51 -550 103 -46 16 -45 -7 -13 235 12 89 25 162 29
162 5 0 48 -9 96 -21z m1146 -16 c18 -92 48 -366 41 -373 -11 -9 -203 -54
-299 -70 -84 -13 -274 -27 -281 -21 -2 2 -4 97 -4 211 l0 207 133 12 c125 11
356 47 366 57 14 14 39 1 44 -23z m-1838 -222 c126 -80 356 -188 510 -240 279
-93 520 -128 815 -118 261 9 486 51 745 138 122 42 348 145 437 199 26 17 51
30 54 30 8 0 -5 -169 -22 -280 -68 -447 -318 -770 -703 -911 -340 -123 -788
-129 -1151 -14 -371 118 -641 422 -735 828 -40 172 -60 437 -32 421 6 -4 44
-28 82 -53z"/>
<path d="M2818 5842 c-123 -130 -268 -326 -268 -361 0 -33 30 -61 65 -61 32 0
39 6 86 78 64 97 140 190 218 267 43 42 61 67 61 85 -1 39 -23 60 -62 60 -31
0 -44 -9 -100 -68z"/>
<path d="M5165 5815 c-14 -13 -25 -31 -25 -39 0 -8 26 -45 58 -81 69 -77 138
-194 168 -282 26 -77 39 -93 74 -93 33 0 60 28 60 61 0 123 -219 459 -299 459
-6 0 -23 -11 -36 -25z"/>
<path d="M3086 5715 c-52 -63 -141 -207 -162 -260 -20 -54 -13 -92 21 -107 39
-18 69 2 98 66 30 65 107 187 148 234 33 37 36 58 13 90 -10 15 -25 22 -48 22
-28 0 -40 -8 -70 -45z"/>
<path d="M4835 5665 c-14 -13 -25 -28 -25 -33 0 -5 15 -43 33 -83 19 -41 39
-96 46 -124 7 -27 17 -55 23 -62 17 -20 72 -16 93 7 18 20 18 24 2 88 -20 87
-71 197 -99 217 -31 21 -45 19 -73 -10z"/>
<path d="M3336 5581 c-55 -83 -66 -123 -41 -151 28 -31 105 -21 105 14 0 7 18
38 40 70 59 83 49 136 -25 136 -30 0 -38 -7 -79 -69z"/>
<path d="M2995 3991 c-174 -50 -315 -186 -376 -363 -32 -92 -32 -237 -1 -338
63 -203 234 -377 420 -428 218 -59 478 49 616 256 121 183 129 410 21 583
-124 198 -319 310 -535 308 -48 0 -111 -8 -145 -18z"/>
<path d="M4715 3985 c-72 -20 -183 -79 -236 -124 -60 -52 -133 -160 -160 -236
-46 -130 -32 -327 33 -465 37 -76 148 -193 218 -228 174 -85 378 -101 524 -40
212 90 346 305 346 556 0 162 -59 295 -179 404 -69 62 -156 109 -247 132 -75
19 -229 20 -299 1z"/>
<path d="M3938 2861 c-188 -61 -182 -262 9 -317 97 -28 200 -2 257 66 31 38
40 69 33 115 -14 83 -89 136 -201 141 -39 2 -83 -1 -98 -5z"/>
</g>
</svg>
